<svg xmlns="http://www.w3.org/2000/svg" width="1200" height="760" viewBox="0 0 1200 760">
  <defs>
    <marker id="arrow" markerWidth="12" markerHeight="12" refX="10" refY="6" orient="auto" markerUnits="userSpaceOnUse">
      <path d="M0,0 L12,6 L0,12 z" fill="#4a4a4a"/>
    </marker>
    <style>
      .cn { font-family: "Songti SC", "STSong", "Noto Serif CJK SC", serif; fill: #2c2c2c; }
      .section-title { font-size: 28px; font-weight: 700; }
      .card-title { font-size: 22px; font-weight: 700; }
      .card-sub { font-size: 16px; fill: #575757; }
      .rule-main { font-size: 24px; font-weight: 700; fill: #7a5a00; }
      .rule-sub { font-size: 16px; fill: #7a5a00; }
      .tag { font-size: 16px; font-weight: 700; fill: #4b4b4b; }
      .panel { stroke: #222222; stroke-width: 1.6; }
      .card { fill: #ffffff; stroke: #222222; stroke-width: 1.4; }
      .connector { fill: none; stroke: #4a4a4a; stroke-width: 2; marker-end: url(#arrow); }
    </style>
  </defs>

  <rect x="0" y="0" width="1200" height="760" fill="#ffffff"/>

  <rect x="50" y="50" width="1100" height="250" rx="28" ry="28" fill="#dfeef2" class="panel"/>
  <text x="80" y="94" class="cn section-title">一致性构建与正确性闭环</text>

  <rect x="85" y="128" width="230" height="124" rx="18" ry="18" class="card"/>
  <text x="200" y="168" text-anchor="middle" class="cn card-title">固定源码状态与实验基线</text>
  <text x="200" y="198" text-anchor="middle" class="cn card-sub">统一 LoongArch64 目标环境</text>

  <rect x="350" y="128" width="230" height="124" rx="18" ry="18" class="card"/>
  <text x="465" y="168" text-anchor="middle" class="cn card-title">完整构建 ART 实验产物</text>
  <text x="465" y="198" text-anchor="middle" class="cn card-sub">保持产物与源码状态一致</text>

  <rect x="615" y="128" width="230" height="124" rx="18" ry="18" class="card"/>
  <text x="730" y="168" text-anchor="middle" class="cn card-title">一致性部署到目标设备</text>
  <text x="730" y="198" text-anchor="middle" class="cn card-sub">统一部署顺序与运行条件</text>

  <rect x="880" y="128" width="235" height="124" rx="18" ry="18" class="card"/>
  <text x="997.5" y="164" text-anchor="middle" class="cn card-title">分层正确性验证</text>
  <text x="997.5" y="194" text-anchor="middle" class="cn card-sub">宿主机侧测试 / 目标机 run-test</text>
  <text x="997.5" y="218" text-anchor="middle" class="cn card-sub">/ libcore 测试</text>

  <path d="M315 190 L350 190" class="connector"/>
  <path d="M580 190 L615 190" class="connector"/>
  <path d="M845 190 L880 190" class="connector"/>
  <path d="M600 300 L600 322" class="connector"/>

  <rect x="230" y="322" width="740" height="86" rx="18" ry="18" fill="#f5d8bf" class="panel"/>
  <text x="600" y="358" text-anchor="middle" class="cn rule-main">先正确性，后性能</text>
  <text x="600" y="384" text-anchor="middle" class="cn rule-sub">仅在正确性约束成立后进入性能评测</text>

  <rect x="50" y="430" width="1100" height="190" rx="28" ry="28" fill="#d9e4c2" class="panel"/>
  <text x="80" y="474" class="cn section-title">性能评测与证据组织</text>

  <rect x="210" y="650" width="780" height="76" rx="20" ry="20" fill="#ffffff" class="panel"/>
  <text x="600" y="682" text-anchor="middle" class="cn card-title">结果归档与分析证据</text>
  <text x="600" y="708" text-anchor="middle" class="cn card-sub">运行日志 / 性能数据 / 剖析报告 / 可视化分析结果</text>
</svg>
